<svg xmlns="http://www.w3.org/2000/svg" viewBox="0 0 470.665 470.665"><path d="M244.926 431.639v-16.918a5.855 5.855 0 0 0-5.855-5.85h-7.501a5.839 5.839 0 0 0-5.847 5.85v17.11l-22.668-55.486a17.53 17.53 0 0 0-16.4 11.338l-11.123 29.458-1.838 4.787c15.305 14.648 35.803 23.907 58.415 24.711a89.91 89.91 0 0 0 3.208.064c1.255 0 2.503-.033 3.746-.085 22.375-.929 42.649-10.136 57.828-24.637l-1.858-4.841-11.287-29.609a17.374 17.374 0 0 0-16.236-11.187l-22.584 55.295z"/><path d="M364.266 5.373c-54.692 0-99.184 44.494-99.184 99.18 0 20.421 6.206 39.418 16.827 55.21l-46.593 46.591-46.249-46.252c12.236-16.669 19.476-37.221 19.476-59.434C208.545 45.162 163.369 0 107.86 0 52.353 0 7.208 45.162 7.208 100.668c0 55.508 45.145 100.67 100.652 100.67 21.793 0 41.99-6.963 58.489-18.778l52.988 52.993v9.93c-54.848 7.789-97.175 55.055-97.175 112.024 0 62.393 50.769 113.158 113.154 113.158 62.401 0 113.162-50.765 113.162-113.158 0-56.974-42.327-104.242-97.191-112.026v-9.916l52.481-52.476c16.755 12.936 37.741 20.644 60.498 20.644 54.7 0 99.191-44.493 99.191-99.18.001-54.686-44.491-99.18-99.191-99.18zM107.86 185.362c-46.69 0-84.682-37.993-84.682-84.694 0-46.699 37.991-84.695 84.682-84.695 46.706 0 84.712 37.996 84.712 84.695 0 46.701-38.006 84.694-84.712 84.694zm224.648 172.145c0 53.588-43.591 97.184-97.191 97.184-53.577 0-97.176-43.596-97.176-97.184 0-53.587 43.599-97.184 97.176-97.184 53.601 0 97.191 43.597 97.191 97.184zm31.758-169.749c-45.891 0-83.212-37.322-83.212-83.205 0-45.882 37.322-83.204 83.212-83.204 45.868 0 83.212 37.322 83.212 83.204 0 45.883-37.344 83.205-83.212 83.205z"/><path d="M198.996 320.893c0 16.208 5.906 30.584 14.973 39.469 5.996 5.875 13.372 9.354 21.348 9.354 7.972 0 15.349-3.479 21.347-9.354 9.069-8.885 14.981-23.261 14.981-39.469 0-26.926-16.302-48.829-36.328-48.829-20.034 0-36.321 21.903-36.321 48.829zm61.185 0c0 20.25-11.386 37.354-24.864 37.354-13.479 0-24.857-17.104-24.857-37.354s11.378-37.364 24.857-37.364c13.478-.001 24.864 17.114 24.864 37.364zm-30.449 80.49h11.124c1.761 0 3.4-.904 4.332-2.396l2.454-3.916a8.558 8.558 0 0 0 .247-8.72 8.612 8.612 0 0 0-7.517-4.43h-10.171a8.63 8.63 0 0 0-7.524 4.43 8.647 8.647 0 0 0 .253 8.72l2.463 3.916a5.104 5.104 0 0 0 4.339 2.396zM70.32 96.002h19.897a31.189 31.189 0 0 0 4.646 4.176v9.787h-4.379l8.962 21.92c3.014 7.338 14.99 7.348 18.004-.008l8.946-21.912h-4.363v-9.796c1.666-1.194 3.193-2.577 4.631-4.167h19.938a4.605 4.605 0 0 0 4.079-2.497 4.568 4.568 0 0 0-.358-4.769c-4.581-6.393-8.119-14.808-9.131-21.889-.544-3.805-7.124-41.979-32.752-41.979-23.215 0-32.75 31.26-32.75 42.119 0 7.133-4.534 15.396-9.092 21.748a4.57 4.57 0 0 0-.365 4.769 4.608 4.608 0 0 0 4.087 2.498zm38.219-41.51c10.35 0 18.621 5.658 19.264 12.752-.382 15.396-9.043 28.229-19.362 28.229-10.181 0-18.743-12.568-19.305-27.752.276-7.323 8.791-13.229 19.403-13.229z"/><path d="M156.945 145.643l-11.199-28.885a9.948 9.948 0 0 0-9.3-6.35l-10.229 25.044c-2.981 7.265-9.936 11.942-17.777 11.942a19.13 19.13 0 0 1-17.761-11.936L80.467 110.4a15.619 15.619 0 0 0-10.456 9.397l-10.076 25.845-2.404 6.251a7.981 7.981 0 0 0 2.965 9.447c13.673 9.325 30.183 14.812 47.944 14.812 17.777 0 34.27-5.486 47.96-14.812 3.048-2.075 4.298-5.995 2.95-9.447l-2.405-6.25zm255.257 3.119l-8.746-22.959a15.518 15.518 0 0 0-12.607-9.87l-.003-.001c-2.277 12.84-13.444 22.703-26.936 22.703-13.499 0-24.666-9.855-26.958-22.703a15.484 15.484 0 0 0-12.491 9.813l-8.84 23.018-2.34 6.111c-1.393 3.598-.056 7.656 3.176 9.764 13.69 8.893 29.96 14.113 47.455 14.113 17.496 0 33.767-5.221 47.448-14.113a8.178 8.178 0 0 0 3.185-9.764l-2.343-6.112z"/><path d="M349.997 105.515v10.274h-3.327c2.085 7.738 8.843 13.565 17.24 13.565 8.391 0 15.156-5.826 17.233-13.565h-3.319v-10.274c9.146-6.69 15.442-19.579 15.442-34.532 0-21.756-13.173-39.463-29.356-39.463-16.189 0-29.363 17.707-29.363 39.463 0 14.953 6.297 27.841 15.45 34.532zm13.913-64.724c10.874 0 20.091 13.825 20.091 30.191s-9.216 30.182-20.091 30.182c-10.88 0-20.082-13.815-20.082-30.182s9.202-30.191 20.082-30.191z"/></svg>